<?xml version="1.0" encoding="utf-8"?>
<!-- Generator: Adobe Illustrator 16.0.0, SVG Export Plug-In . SVG Version: 6.00 Build 0)  -->
<!DOCTYPE svg PUBLIC "-//W3C//DTD SVG 1.1//EN" "http://www.w3.org/Graphics/SVG/1.1/DTD/svg11.dtd">
<svg fill="#333" version="1.1" id="Layer_1" xmlns="http://www.w3.org/2000/svg" xmlns:xlink="http://www.w3.org/1999/xlink" x="0px" y="0px"
	 width="40px" height="40px" viewBox="0 0 400 400" enable-background="new 0 0 400 400" xml:space="preserve">
<g>
	<path d="M206,195h127.045C330.991,126,276,70.09,206,66.565V195z"/>
	<path d="M190,211V66.719c-70,4.792-124.16,62.617-124.16,133.258c0,73.777,59.857,132.986,133.635,132.986
		c69.658,0,126.9-52.963,133.074-121.963H190z"/>
</g>
<g>
	<path d="M290.666,100.082l-7.233-7.225c0.832,0.965,1.663,2.029,2.489,3.182C287.535,97.351,289.117,98.699,290.666,100.082z"/>
	<path opacity="0.1" d="M400,400l1.186-186.518L298.188,110.594c21.165,23.628,33.951,54.796,33.951,88.958
		c0,73.777-59.032,133.626-132.81,133.626c-32.313,0-61.939-11.342-85.041-30.342L211.473,400H400z"/>
	<path d="M98.96,284.492l-0.005,0.012l0.086,0.086C99.014,284.558,98.986,284.525,98.96,284.492z"/>
</g>
</svg>
