<?xml version="1.0" encoding="utf-8"?>
<!-- Generator: Adobe Illustrator 16.0.0, SVG Export Plug-In . SVG Version: 6.00 Build 0)  -->
<!DOCTYPE svg PUBLIC "-//W3C//DTD SVG 1.1//EN" "http://www.w3.org/Graphics/SVG/1.1/DTD/svg11.dtd">
<svg fill="#333" version="1.1" id="Layer_1" xmlns="http://www.w3.org/2000/svg" xmlns:xlink="http://www.w3.org/1999/xlink" x="0px" y="0px"
	 width="40px" height="40px" viewBox="0 0 400 400" enable-background="new 0 0 400 400" xml:space="preserve">
<g opacity="0.1">
	<polygon points="400,152.662 319,71.662 325.334,108.162 304.667,128.495 265.834,124.828 400,258.995 	"/>
	<polygon points="153.175,400.504 71.834,319.027 110.667,322.595 131.334,302.212 125,265.688 269.366,400.212 	"/>
	<polygon points="243.667,225 400,369.219 399.99,328.865 186,114.688 195,153.828 174.334,178.495 132.834,168.027 
		210.803,246.197 	"/>
	<polygon points="399.978,364.853 264,228.688 273,267.828 252.334,292.495 210.834,282.027 329.303,400.697 400,400.504 	"/>
</g>
<path d="M103,258.995c-20.987,0-38,17.014-38,38s17.013,38,38,38c20.986,0,38-17.014,38-38S123.986,258.995,103,258.995z
	 M103,322.142c-13.888,0-25.146-11.258-25.146-25.146S89.112,271.849,103,271.849c13.889,0,25.146,11.258,25.146,25.146
	S116.889,322.142,103,322.142z"/>
<path d="M163.417,108.583c-20.987,0-38,17.014-38,38s17.013,38,38,38c20.986,0,38-17.014,38-38S184.403,108.583,163.417,108.583z
	 M163.417,171.729c-13.888,0-25.146-11.258-25.146-25.146s11.259-25.146,25.146-25.146c13.889,0,25.146,11.258,25.146,25.146
	S177.306,171.729,163.417,171.729z"/>
<path d="M241.083,220.995c-20.986,0-38,17.014-38,38s17.014,38,38,38c20.985,0,38-17.014,38-38S262.068,220.995,241.083,220.995z
	 M241.083,284.142c-13.888,0-25.146-11.258-25.146-25.146s11.259-25.146,25.146-25.146c13.889,0,25.146,11.258,25.146,25.146
	S254.972,284.142,241.083,284.142z"/>
<path d="M297,65c-20.986,0-38,17.014-38,38s17.014,38,38,38s38-17.014,38-38S317.986,65,297,65z M297,128.146
	c-13.889,0-25.146-11.258-25.146-25.146S283.111,77.854,297,77.854S322.146,89.111,322.146,103S310.889,128.146,297,128.146z"/>
</svg>
